<?xml version="1.0" encoding="utf-8"?>
<svg width="256px" height="425px" viewBox="-1756.091 -923.556 3857.794 1053.971" version="1.1" preserveAspectRatio="xMidYMid" xmlns="http://www.w3.org/2000/svg">
  <defs>
    <linearGradient x1="50%" y1="-352.925786%" x2="50%" y2="96.7175267%" id="linearGradient-1">
      <stop stop-color="#002E3B" offset="0"/>
      <stop stop-color="#002639" offset="1"/>
    </linearGradient>
    <linearGradient x1="50%" y1="-2.80786187%" x2="50%" y2="428.758892%" id="linearGradient-2">
      <stop stop-color="#002E3B" offset="0"/>
      <stop stop-color="#002639" offset="1"/>
    </linearGradient>
    <radialGradient cx="16.4234038%" cy="142.999709%" r="295.57111%" id="radialGradient-3">
      <stop stop-color="#00BC85" offset="0"/>
      <stop stop-color="#149D91" offset="1"/>
    </radialGradient>
    <radialGradient cx="16.423338%" cy="-42.999755%" r="357.003966%" id="radialGradient-4">
      <stop stop-color="#00BC85" offset="0"/>
      <stop stop-color="#149D91" offset="1"/>
    </radialGradient>
    <radialGradient cx="11.4670327%" cy="-40.4580495%" r="343.189366%" id="radialGradient-5">
      <stop stop-color="#004473" offset="0"/>
      <stop stop-color="#00345F" offset="1"/>
    </radialGradient>
  </defs>
  <g style="" transform="matrix(1.207206, 0, 0, 2.11562, -1666.773437, -801.292603)">
    <path d="M65.6992339,330.300644 L0.107733463,362.384436 L127.400289,424.384842 L255.039336,362.18981 L189.28052,329.651265 L127.352045,360.40471 L65.6992339,330.300644 Z" fill="url(#linearGradient-1)"/>
    <path d="M57.6019991,98.1748765 L57.6019991,98.1541795 L127.531267,64.0476413 L197.46571,98.1541795 L255.003891,62.1986373 L127.484698,0 L0,62.1796642 L0,62.2348584 L57.5537042,98.1990237 L57.6019991,98.1748765 L57.6019991,98.1748765 Z" fill="url(#linearGradient-2)"/>
    <path d="M0.15618046,298.428426 L63.071162,267.624645 L127.784793,299.667263 L0.15618046,362.461971 L0.15618046,298.428426 Z" fill="url(#radialGradient-3)"/>
    <path d="M196.677541,99.4103235 C196.67754,132.999495 196.677539,200.177839 196.677539,200.177839 L126.336262,234.601641 L191.022434,266.940614 L254.000917,236.143726 L254.00091,62.1907831 L196.677541,98.1665853 L196.677541,99.4103235 Z" fill="url(#radialGradient-4)"/>
    <path d="M255.003891,298.216498 L57.5889764,199.96591 L57.5889774,98.1815418 L1.42108547e-14,62.2302408 L1.42108547e-14,63.1375243 L1.42108547e-14,235.931797 L255.003891,362.253488 L255.003891,298.216498 Z" fill="url(#radialGradient-5)"/>
  </g>
  <text style="white-space: pre; fill: rgb(51, 51, 51); font-family: Arial, sans-serif; font-size: 14.3px;" x="390.348" y="137.08" transform="matrix(1.260079, 0, 0, 1.700391, -1669.864868, -906.40448)"> </text>
  <text style="white-space: pre; fill: rgb(51, 51, 51); font-family: Arial, sans-serif; font-size: 14.3px;" x="440.288" y="124.341" transform="matrix(1.260079, 0, 0, 1.700391, -1669.864868, -906.40448)"> </text>
  <text style="fill: rgb(51, 51, 51); font-family: Arial, sans-serif; font-size: 150px; font-weight: 700; text-transform: uppercase; white-space: pre;" transform="matrix(2.592154, -0.026861, -0.000832, 3.600965, -1823.25354, -875.196777)"><tspan x="290.468" y="125.36">CORE 5.0 KAMPI</tspan><tspan x="290.468" dy="1em">​</tspan><tspan>     TRKAYDN</tspan></text>
</svg>